<svg xmlns="http://www.w3.org/2000/svg" viewBox="0 0 256 256" width="128" height="128" role="img" aria-label="Bharat Auto Bazaar Logo">
  <defs>
    <linearGradient id="g" x1="0" x2="1" y1="0" y2="1">
      <stop offset="0%" stop-color="#3F8CFF"/>
      <stop offset="100%" stop-color="#FDC500"/>
    </linearGradient>
  </defs>
  <rect width="256" height="256" rx="32" fill="url(#g)"/>
  <g fill="#ffffff">
    <circle cx="128" cy="128" r="56" opacity="0.25"/>
    <path d="M88 144c0-22.091 17.909-40 40-40 10.493 0 20.07 4.04 27.273 10.667l16.97-16.97C162.03 88.27 145.877 80 128 80c-35.346 0-64 28.654-64 64h24z"/>
    <path d="M168 112c0 22.091-17.909 40-40 40-10.493 0-20.07-4.04-27.273-10.667l-16.97 16.97C93.97 167.73 110.123 176 128 176c35.346 0 64-28.654 64-64h-24z"/>
  </g>
</svg>

